<svg width="29" height="35" viewBox="0 0 29 35" fill="none" xmlns="http://www.w3.org/2000/svg">
<path d="M14.2179 7.65625C13.4607 7.65625 12.7206 7.43174 12.0911 7.0111C11.4615 6.59046 10.9709 5.99258 10.6811 5.29309C10.3914 4.59359 10.3156 3.82388 10.4633 3.0813C10.611 2.33871 10.9756 1.65661 11.511 1.12123C12.0463 0.585861 12.7285 0.221267 13.471 0.0735581C14.2136 -0.074151 14.9833 0.00165869 15.6828 0.2914C16.3823 0.581142 16.9802 1.0718 17.4008 1.70133C17.8215 2.33087 18.046 3.07099 18.046 3.82813C18.0449 4.84307 17.6412 5.81614 16.9236 6.53382C16.2059 7.2515 15.2328 7.65517 14.2179 7.65625Z" fill="#4F4F4F" fill-opacity="0.24"/>
<path d="M26.2493 7.71109L26.2185 7.71929L26.1898 7.72818C26.1215 7.74732 26.0531 7.76782 25.9848 7.78901C24.7126 8.16226 18.5384 9.90269 14.1887 9.90269C10.1466 9.90269 4.53086 8.39878 2.73437 7.88814C2.55558 7.819 2.37299 7.76012 2.1875 7.71177C0.888672 7.36997 0 8.68931 0 9.89517C0 11.0894 1.07324 11.6582 2.15674 12.0663V12.0854L8.66591 14.1184C9.33105 14.3734 9.50879 14.6338 9.5956 14.8594C9.87793 15.5834 9.65234 17.0168 9.57236 17.5172L9.17588 20.5934L6.97539 32.6377C6.96855 32.6705 6.9624 32.704 6.95693 32.7381L6.94121 32.825C6.78261 33.929 7.59336 35.0002 9.12871 35.0002C10.4686 35.0002 11.0599 34.0753 11.3162 32.8168C11.5726 31.5583 13.2303 22.0454 14.1873 22.0454C15.1443 22.0454 17.1158 32.8168 17.1158 32.8168C17.3722 34.0753 17.9635 35.0002 19.3033 35.0002C20.8428 35.0002 21.6535 33.9242 21.4908 32.8168C21.4768 32.7236 21.4595 32.6311 21.4389 32.5392L19.2083 20.5948L18.8125 17.5186C18.5261 15.7269 18.7564 15.1349 18.8344 14.9961C18.8365 14.9929 18.8383 14.9894 18.8398 14.9859C18.9137 14.8492 19.25 14.5429 20.0348 14.2483L26.1379 12.1148C26.1754 12.1048 26.2123 12.093 26.2486 12.0793C27.3424 11.6691 28.4361 11.1017 28.4361 9.89654C28.4361 8.69136 27.5481 7.36997 26.2493 7.71109Z" fill="#4F4F4F" fill-opacity="0.24"/>
</svg>
