<svg width="32" height="35" viewBox="0 0 32 35" fill="none" xmlns="http://www.w3.org/2000/svg">
<path d="M27.5 30V3.125C27.5 2.71462 27.4192 2.30826 27.2621 1.92911C27.1051 1.54997 26.8749 1.20547 26.5847 0.915291C26.2945 0.625108 25.95 0.394922 25.5709 0.237876C25.1918 0.0808305 24.7854 0 24.375 0H3.125C2.2962 0 1.50134 0.32924 0.915292 0.915291C0.32924 1.50134 0 2.2962 0 3.125V30.625C0 31.7853 0.460936 32.8981 1.28141 33.7186C2.10188 34.5391 3.21468 35 4.375 35H31.1602C31.172 35.0001 31.1837 34.9978 31.1947 34.9934C31.2056 34.9889 31.2156 34.9823 31.2239 34.9739C31.2323 34.9655 31.2389 34.9556 31.2434 34.9447C31.2479 34.9337 31.2501 34.922 31.25 34.9102C31.25 34.8905 31.2434 34.8714 31.2314 34.8559C31.2194 34.8403 31.2026 34.8292 31.1836 34.8242C30.1262 34.5342 29.1932 33.9051 28.5278 33.0337C27.8624 32.1622 27.5013 31.0965 27.5 30ZM5 7.5C5 7.16848 5.1317 6.85054 5.36612 6.61612C5.60054 6.3817 5.91848 6.25 6.25 6.25H11.25C11.5815 6.25 11.8995 6.3817 12.1339 6.61612C12.3683 6.85054 12.5 7.16848 12.5 7.5V12.5C12.5 12.8315 12.3683 13.1495 12.1339 13.3839C11.8995 13.6183 11.5815 13.75 11.25 13.75H6.25C5.91848 13.75 5.60054 13.6183 5.36612 13.3839C5.1317 13.1495 5 12.8315 5 12.5V7.5ZM21.25 28.75H6.28516C5.6125 28.75 5.03516 28.2328 5.00157 27.5602C4.99342 27.3911 5.01968 27.2222 5.07874 27.0637C5.13781 26.9051 5.22845 26.7602 5.34518 26.6377C5.46191 26.5152 5.60229 26.4177 5.75782 26.351C5.91335 26.2844 6.0808 26.25 6.25 26.25H21.2149C21.8875 26.25 22.4649 26.7672 22.4985 27.4398C22.5066 27.6089 22.4803 27.7778 22.4213 27.9363C22.3622 28.0949 22.2716 28.2398 22.1548 28.3623C22.0381 28.4848 21.8977 28.5823 21.7422 28.649C21.5867 28.7156 21.4192 28.75 21.25 28.75ZM21.25 23.75H6.28516C5.6125 23.75 5.03516 23.2328 5.00157 22.5602C4.99342 22.3911 5.01968 22.2222 5.07874 22.0637C5.13781 21.9051 5.22845 21.7602 5.34518 21.6377C5.46191 21.5152 5.60229 21.4177 5.75782 21.351C5.91335 21.2844 6.0808 21.25 6.25 21.25H21.2149C21.8875 21.25 22.4649 21.7672 22.4985 22.4398C22.5066 22.6089 22.4803 22.7778 22.4213 22.9363C22.3622 23.0949 22.2716 23.2398 22.1548 23.3623C22.0381 23.4848 21.8977 23.5823 21.7422 23.649C21.5867 23.7156 21.4192 23.75 21.25 23.75ZM21.25 18.75H6.28516C5.6125 18.75 5.03516 18.2328 5.00157 17.5602C4.99342 17.3911 5.01968 17.2222 5.07874 17.0637C5.13781 16.9051 5.22845 16.7602 5.34518 16.6377C5.46191 16.5152 5.60229 16.4177 5.75782 16.351C5.91335 16.2844 6.0808 16.25 6.25 16.25H21.2149C21.8875 16.25 22.4649 16.7672 22.4985 17.4398C22.5066 17.6089 22.4803 17.7778 22.4213 17.9363C22.3622 18.0949 22.2716 18.2398 22.1548 18.3623C22.0381 18.4848 21.8977 18.5823 21.7422 18.649C21.5867 18.7156 21.4192 18.75 21.25 18.75ZM21.25 13.75H16.2852C15.6125 13.75 15.0352 13.2328 15.0016 12.5602C14.9934 12.3911 15.0197 12.2222 15.0788 12.0637C15.1378 11.9051 15.2285 11.7602 15.3452 11.6377C15.4619 11.5152 15.6023 11.4177 15.7578 11.351C15.9134 11.2844 16.0808 11.25 16.25 11.25H21.2149C21.8875 11.25 22.4649 11.7672 22.4985 12.4398C22.5066 12.6089 22.4803 12.7778 22.4213 12.9363C22.3622 13.0949 22.2716 13.2398 22.1548 13.3623C22.0381 13.4848 21.8977 13.5823 21.7422 13.649C21.5867 13.7156 21.4192 13.75 21.25 13.75ZM21.25 8.75H16.2852C15.6125 8.75 15.0352 8.23281 15.0016 7.56016C14.9934 7.39114 15.0197 7.22224 15.0788 7.06367C15.1378 6.90511 15.2285 6.76019 15.3452 6.63769C15.4619 6.51519 15.6023 6.41767 15.7578 6.35102C15.9134 6.28438 16.0808 6.25001 16.25 6.25H21.2149C21.8875 6.25 22.4649 6.76719 22.4985 7.43984C22.5066 7.60886 22.4803 7.77776 22.4213 7.93633C22.3622 8.09489 22.2716 8.23981 22.1548 8.36231C22.0381 8.48481 21.8977 8.58233 21.7422 8.64897C21.5867 8.71561 21.4192 8.74998 21.25 8.75Z" fill="#4F4F4F" fill-opacity="0.24"/>
</svg>
