<svg width="35" height="35" viewBox="0 0 35 35" fill="none" xmlns="http://www.w3.org/2000/svg">
<path d="M1.24985 11.2527V11.3043C1.24801 11.6263 1.13172 11.9373 0.921767 12.1815V12.1854C0.499941 12.6838 0 13.5759 0 15.0023C0 16.2951 0.414014 17.2075 0.912393 17.8074C1.13105 18.0735 1.25036 18.4074 1.24985 18.7518C1.24985 19.4148 1.51321 20.0506 1.982 20.5194C2.45079 20.9882 3.0866 21.2515 3.74956 21.2515H4.37449C4.54023 21.2515 4.69918 21.1857 4.81638 21.0685C4.93357 20.9513 4.99941 20.7923 4.99941 20.6266V9.37792C4.99941 9.21218 4.93357 9.05323 4.81638 8.93603C4.69918 8.81883 4.54023 8.75299 4.37449 8.75299H3.74956C3.0866 8.75299 2.45079 9.01635 1.982 9.48514C1.51321 9.95393 1.24985 10.5897 1.24985 11.2527ZM32.8227 12.0768L32.7501 12.0635C32.6786 12.0499 32.6142 12.0118 32.5679 11.9557C32.5215 11.8997 32.4962 11.8293 32.4962 11.7565V2.34749C32.4962 1.36011 31.8408 0.472715 30.8644 0.135254C29.9332 -0.185802 28.963 0.0758862 28.3896 0.801582C27.1699 2.25815 25.8291 3.6089 24.3815 4.83939C22.5356 6.40171 20.7694 7.51486 19.1478 8.14447C19.0295 8.18956 18.9277 8.26949 18.8559 8.37368C18.784 8.47788 18.7455 8.60143 18.7455 8.72799V20.8609C18.7457 21.1053 18.8175 21.3442 18.952 21.5481C19.0865 21.7521 19.2779 21.9121 19.5024 22.0085C21.0132 22.656 22.6458 23.7137 24.3456 25.155C25.804 26.3966 27.1545 27.7597 28.3826 29.2295C28.5794 29.4763 28.8305 29.6743 29.1164 29.8081C29.4023 29.9418 29.7153 30.0077 30.0309 30.0005C30.3082 29.9993 30.5836 29.9534 30.8464 29.8646C31.8486 29.5318 32.4962 28.6764 32.4962 27.6883V18.2464C32.4963 18.1727 32.5224 18.1013 32.57 18.045C32.6176 17.9887 32.6836 17.951 32.7563 17.9386L32.8227 17.9277C33.5742 17.7238 34.9959 16.8513 34.9959 15.0023C34.9959 13.1533 33.5742 12.2807 32.8227 12.0768ZM16.2481 22.5014V9.37792C16.2481 9.21218 16.1823 9.05323 16.0651 8.93603C15.9479 8.81883 15.7889 8.75299 15.6232 8.75299H8.12405C7.95831 8.75299 7.79936 8.81883 7.68216 8.93603C7.56496 9.05323 7.49912 9.21218 7.49912 9.37792V33.1251C7.49912 33.6224 7.69664 34.0992 8.04823 34.4508C8.39982 34.8024 8.87668 34.9999 9.3739 34.9999H13.4711C13.8605 35.0032 14.2456 34.9172 14.5967 34.7486C14.9478 34.5801 15.2556 34.3333 15.4966 34.0274C15.7437 33.7106 15.9099 33.3385 15.9808 32.9431C16.0517 32.5477 16.0252 32.141 15.9036 31.7581C15.7771 31.3535 15.62 30.8988 15.4529 30.4153C14.835 28.6264 14.0202 27.5195 13.8031 25.0003C14.4564 24.986 15.0781 24.7165 15.5351 24.2494C15.9921 23.7823 16.2481 23.1548 16.2481 22.5014Z" fill="#4F4F4F" fill-opacity="0.24"/>
</svg>
