<svg width="48" height="35" viewBox="0 0 48 35" fill="none" xmlns="http://www.w3.org/2000/svg">
<path d="M31.818 17.5C29.7737 17.5 27.797 16.5872 26.2498 14.9307C24.7454 13.3149 23.8267 11.1602 23.6646 8.86533C23.4916 6.41732 24.2383 4.16619 25.7666 2.52557C27.2949 0.884942 29.4317 0 31.818 0C34.1875 0 36.3302 0.900851 37.8535 2.5375C39.3917 4.19005 40.1404 6.43721 39.9674 8.86434C39.8014 11.1622 38.8836 13.3159 37.3822 14.9297C35.839 16.5872 33.8633 17.5 31.818 17.5ZM44.9261 35H18.7109C18.2895 35.0022 17.8731 34.9077 17.4938 34.7238C17.1146 34.5399 16.7826 34.2714 16.5234 33.939C16.2485 33.5787 16.0587 33.1609 15.9681 32.7168C15.8775 32.2727 15.8886 31.8139 16.0004 31.3747C16.8376 28.0129 18.9118 25.2248 21.9981 23.3128C24.7375 21.6165 28.2246 20.6818 31.818 20.6818C35.4821 20.6818 38.8777 21.5767 41.6329 23.272C44.7262 25.1741 46.8034 27.9781 47.6366 31.3806C47.7471 31.8202 47.7569 32.279 47.6653 32.7228C47.5737 33.1667 47.3831 33.5841 47.1076 33.944C46.8487 34.2748 46.5175 34.542 46.1393 34.725C45.7612 34.9081 45.3462 35.0021 44.9261 35ZM13.0254 17.8977C9.52643 17.8977 6.45002 14.6443 6.16465 10.6462C6.02346 8.59786 6.66181 6.70369 7.95442 5.31462C9.23311 3.93948 11.0368 3.18181 13.0254 3.18181C15.0141 3.18181 16.8038 3.94346 18.0895 5.32656C19.392 6.72656 20.0284 8.61675 19.8793 10.6481C19.5939 14.6453 16.5185 17.8977 13.0254 17.8977ZM19.5541 21.0248C17.8051 20.1697 15.5351 19.7422 13.0264 19.7422C10.0972 19.7422 7.25243 20.5058 5.01522 21.8919C2.47872 23.4659 0.772471 25.7578 0.0834095 28.525C-0.017429 28.923 -0.0269665 29.3387 0.0555103 29.7409C0.137987 30.1431 0.310343 30.5215 0.559687 30.8477C0.796282 31.1514 1.09939 31.3968 1.44569 31.5651C1.79199 31.7333 2.17227 31.8199 2.55727 31.8181H13.5942C13.7805 31.8181 13.9608 31.7527 14.1038 31.6333C14.2468 31.514 14.3434 31.3482 14.3767 31.1649C14.3876 31.1022 14.4016 31.0396 14.4175 30.9779C15.2607 27.5913 17.2364 24.7297 20.1557 22.6436C20.2631 22.5662 20.3494 22.4632 20.4069 22.344C20.4645 22.2248 20.4913 22.0931 20.4851 21.9609C20.4789 21.8287 20.4398 21.7001 20.3713 21.5868C20.3028 21.4736 20.2072 21.3792 20.093 21.3122C19.9369 21.2207 19.7579 21.1243 19.5541 21.0248Z" fill="#4F4F4F" fill-opacity="0.24"/>
</svg>
