<svg width="33" height="33" viewBox="0 0 33 33" fill="none" xmlns="http://www.w3.org/2000/svg">
<circle cx="16.5" cy="16.5" r="16.5" fill="#2F80ED"/>
<path fill-rule="evenodd" clip-rule="evenodd" d="M26 16.0544C26 11.0543 21.9701 7 17 7C12.0299 7 8 11.0543 8 16.0544C8 20.5735 11.2906 24.3193 15.5938 24.9992V18.6725H13.308V16.0544H15.5938V14.0596C15.5938 11.7907 16.9377 10.5365 18.9933 10.5365C19.978 10.5365 21.0082 10.7135 21.0082 10.7135V12.9419H19.8728C18.7554 12.9419 18.4058 13.6396 18.4058 14.3567V16.0544H20.9017L20.5032 18.6725H18.4062V25C22.7094 24.3205 26 20.5747 26 16.0544Z" fill="white"/>
</svg>
