<svg width="24" height="32" viewBox="0 0 24 32" fill="none" xmlns="http://www.w3.org/2000/svg">
<path d="M12 0.25C5.7893 0.25 0.75 4.78586 0.75 10.375C0.75 19.375 12 31.75 12 31.75C12 31.75 23.25 19.375 23.25 10.375C23.25 4.78586 18.2107 0.25 12 0.25ZM12 16C11.11 16 10.24 15.7361 9.49993 15.2416C8.75991 14.7471 8.18314 14.0443 7.84254 13.2221C7.50195 12.3998 7.41283 11.495 7.58647 10.6221C7.7601 9.74918 8.18868 8.94736 8.81802 8.31802C9.44736 7.68868 10.2492 7.2601 11.1221 7.08647C11.995 6.91283 12.8998 7.00195 13.7221 7.34254C14.5443 7.68314 15.2471 8.25991 15.7416 8.99993C16.2361 9.73996 16.5 10.61 16.5 11.5C16.4987 12.6931 16.0242 13.8369 15.1805 14.6805C14.3369 15.5242 13.1931 15.9987 12 16Z" fill="#999DA0"/>
</svg>
