<svg width="26" height="23" viewBox="0 0 26 23" fill="none" xmlns="http://www.w3.org/2000/svg">
<path d="M9 16.75V19.375C9 20.0712 9.28095 20.7389 9.78105 21.2312C10.2811 21.7234 10.9594 22 11.6667 22H22.3333C23.0406 22 23.7189 21.7234 24.219 21.2312C24.719 20.7389 25 20.0712 25 19.375V3.625C25 2.92881 24.719 2.26113 24.219 1.76885C23.7189 1.27656 23.0406 1 22.3333 1H12.2C10.7273 1 9 2.17534 9 3.625V6.25" stroke="#999DA0" stroke-width="2" stroke-linecap="round" stroke-linejoin="round"/>
<path d="M15.4444 6L21 11.5L15.4444 17M1 11.5H19.8889" stroke="#999DA0" stroke-width="2" stroke-linecap="round" stroke-linejoin="round"/>
</svg>
