<svg width="33" height="33" viewBox="0 0 33 33" fill="none" xmlns="http://www.w3.org/2000/svg">
<circle cx="16.5" cy="16.5" r="16.5" fill="#1C1D20"/>
<path d="M22.4231 24.9998C21.6387 24.9998 20.5367 24.7162 18.8867 23.7945C16.8801 22.6695 15.3281 21.6308 13.3325 19.6408C11.4083 17.7182 10.472 16.4734 9.16147 14.0892C7.68099 11.3972 7.93336 9.98614 8.21547 9.38305C8.55143 8.66224 9.04734 8.23112 9.68832 7.80321C10.0524 7.56472 10.4377 7.36028 10.8393 7.19249C10.8795 7.17521 10.9168 7.15874 10.9502 7.14387C11.1491 7.05427 11.4505 6.91887 11.8323 7.06351C12.0871 7.15914 12.3145 7.35481 12.6706 7.70638C13.4008 8.42639 14.3986 10.0299 14.7667 10.8174C15.0139 11.3482 15.1774 11.6986 15.1778 12.0915C15.1778 12.5516 14.9464 12.9063 14.6655 13.2893C14.6128 13.3612 14.5606 13.4299 14.5099 13.4966C14.2041 13.8984 14.137 14.0145 14.1812 14.2218C14.2708 14.6385 14.9391 15.8788 16.0374 16.9745C17.1357 18.0702 18.3405 18.6962 18.7589 18.7853C18.9751 18.8316 19.0936 18.7616 19.5084 18.445C19.5678 18.3996 19.6289 18.3526 19.6928 18.3056C20.1212 17.987 20.4596 17.7616 20.9089 17.7616H20.9113C21.3023 17.7616 21.6371 17.9311 22.1916 18.2108C22.915 18.5756 24.5671 19.5604 25.2916 20.2913C25.6441 20.6464 25.8406 20.8731 25.9366 21.1274C26.0813 21.5103 25.9451 21.8104 25.8563 22.0113C25.8414 22.0447 25.8249 22.0812 25.8076 22.1218C25.6385 22.5226 25.4328 22.907 25.1932 23.2701C24.766 23.909 24.3332 24.4036 23.6106 24.7399C23.2396 24.9154 22.8335 25.0042 22.4231 24.9998Z" fill="white"/>
</svg>
