<svg width="25" height="25" viewBox="0 0 25 25" fill="none" xmlns="http://www.w3.org/2000/svg">
<path fill-rule="evenodd" clip-rule="evenodd" d="M21.3577 3.63286C20.202 2.47665 18.8291 1.56044 17.3179 0.93697C15.8067 0.3135 14.1872 -0.00491429 12.5524 5.73322e-05C5.69196 5.73322e-05 0.107143 5.55696 0.104352 12.3884C0.101318 14.5637 0.674717 16.701 1.76618 18.5826L0 25L6.59876 23.2773C8.42533 24.2669 10.47 24.7848 12.5474 24.784H12.5524C19.4124 24.784 24.9966 19.2266 25 12.3957C25.0041 10.7665 24.6842 9.15282 24.0589 7.64844C23.4336 6.14407 22.5154 4.77907 21.3577 3.63286ZM12.5524 22.6931H12.548C10.6961 22.6936 8.87783 22.198 7.28235 21.2578L6.90456 21.0346L2.98883 22.0569L4.03403 18.2573L3.78794 17.8666C2.75244 16.2272 2.20382 14.3275 2.20591 12.3884C2.20591 6.71154 6.84932 2.09269 12.5563 2.09269C15.2941 2.0878 17.9216 3.17055 19.8611 5.10279C21.8005 7.03503 22.8931 9.65852 22.8984 12.3962C22.8962 18.0737 18.255 22.6931 12.5524 22.6931ZM18.2271 14.9816C17.9163 14.8265 16.3856 14.0776 16.1021 13.9744C15.8186 13.8711 15.6094 13.8192 15.4023 14.1295C15.1953 14.4398 14.5987 15.134 14.4174 15.3432C14.236 15.5525 14.0547 15.5754 13.7438 15.4202C13.433 15.2651 12.4302 14.9386 11.2422 13.884C10.3175 13.0631 9.69362 12.0497 9.51226 11.74C9.3309 11.4303 9.49273 11.2623 9.64842 11.1083C9.78849 10.9693 9.95925 10.7467 10.1149 10.5659C10.2706 10.3851 10.3225 10.2556 10.4258 10.0491C10.529 9.84267 10.4777 9.66186 10.4001 9.50729C10.3225 9.35271 9.70032 7.82872 9.44139 7.20875C9.1886 6.60495 8.93246 6.68698 8.74162 6.6775C8.56025 6.66857 8.35099 6.66634 8.14508 6.66634C7.98766 6.67043 7.83278 6.70694 7.6901 6.77357C7.54743 6.84021 7.42002 6.93554 7.31584 7.05361C7.03068 7.36388 6.22711 8.11388 6.22711 9.6362C6.22711 11.1585 7.34318 12.6317 7.4972 12.8382C7.65122 13.0447 9.69028 16.1713 12.8102 17.5123C13.3896 17.7604 13.9816 17.978 14.5837 18.1641C15.3287 18.3996 16.0067 18.3666 16.5424 18.2868C17.14 18.1981 18.3839 17.538 18.6423 16.8148C18.9006 16.0915 18.9012 15.4721 18.8236 15.3432C18.7461 15.2143 18.5385 15.1362 18.2271 14.9816Z" fill="#27AE60"/>
</svg>
