<svg width="33" height="33" viewBox="0 0 33 33" fill="none" xmlns="http://www.w3.org/2000/svg">
<circle cx="16.5" cy="16.5" r="16.5" fill="#27AE60"/>
<path fill-rule="evenodd" clip-rule="evenodd" d="M23.3775 9.61566C22.5454 8.78319 21.5569 8.12352 20.4689 7.67462C19.3808 7.22572 18.2148 6.99646 17.0378 7.00004C12.0982 7.00004 8.07714 11.001 8.07513 15.9197C8.07295 17.4859 8.4858 19.0247 9.27165 20.3795L8 25L12.7511 23.7597C14.0662 24.4721 15.5384 24.845 17.0341 24.8445H17.0378C21.9769 24.8445 25.9976 20.8431 26 15.9249C26.003 14.7519 25.7727 13.59 25.3224 12.5069C24.8722 11.4237 24.2111 10.4409 23.3775 9.61566ZM17.0378 23.339H17.0345C15.7012 23.3394 14.392 22.9826 13.2433 22.3056L12.9713 22.1449L10.152 22.881L10.9045 20.1452L10.7273 19.864C9.98176 18.6836 9.58675 17.3158 9.58826 15.9197C9.58826 11.8323 12.9315 8.50673 17.0406 8.50673C19.0117 8.50321 20.9036 9.28279 22.3 10.674C23.6964 12.0652 24.483 13.9541 24.4868 15.9253C24.4852 20.013 21.1436 23.339 17.0378 23.339ZM21.1235 17.7868C20.8997 17.6751 19.7976 17.1359 19.5935 17.0615C19.3894 16.9872 19.2387 16.9498 19.0897 17.1732C18.9406 17.3966 18.5111 17.8964 18.3805 18.0471C18.2499 18.1978 18.1194 18.2143 17.8956 18.1026C17.6718 17.9909 16.9498 17.7558 16.0944 16.9964C15.4286 16.4054 14.9794 15.6758 14.8488 15.4528C14.7182 15.2298 14.8348 15.1089 14.9469 14.998C15.0477 14.8979 15.1707 14.7376 15.2828 14.6074C15.3949 14.4773 15.4322 14.384 15.5066 14.2354C15.5809 14.0867 15.5439 13.9565 15.4881 13.8452C15.4322 13.734 14.9842 12.6367 14.7978 12.1903C14.6158 11.7556 14.4314 11.8146 14.294 11.8078C14.1634 11.8014 14.0127 11.7998 13.8645 11.7998C13.7511 11.8027 13.6396 11.829 13.5369 11.877C13.4341 11.9249 13.3424 11.9936 13.2674 12.0786C13.0621 12.302 12.4835 12.842 12.4835 13.9381C12.4835 15.0341 13.2871 16.0948 13.398 16.2435C13.5089 16.3922 14.977 18.6434 17.2234 19.6089C17.6405 19.7875 18.0667 19.9441 18.5003 20.0781C19.0366 20.2477 19.5248 20.224 19.9105 20.1665C20.3408 20.1026 21.2364 19.6273 21.4224 19.1066C21.6085 18.5859 21.6089 18.1399 21.553 18.0471C21.4972 17.9543 21.3477 17.8981 21.1235 17.7868Z" fill="white"/>
</svg>
